<svg id="visual" viewBox="0 0 1920 1080" width="1920" height="1080" xmlns="http://www.w3.org/2000/svg" xmlns:xlink="http://www.w3.org/1999/xlink" version="1.1"><path d="M0 239L29.2 260.5C58.3 282 116.7 325 174.8 348.3C233 371.7 291 375.3 349.2 380.8C407.3 386.3 465.7 393.7 523.8 386.5C582 379.3 640 357.7 698.2 384.7C756.3 411.7 814.7 487.3 872.8 465.7C931 444 989 325 1047.2 278.2C1105.3 231.3 1163.7 256.7 1221.8 254.8C1280 253 1338 224 1396.2 242C1454.3 260 1512.7 325 1570.8 348.5C1629 372 1687 354 1745.2 364.8C1803.3 375.7 1861.7 415.3 1890.8 435.2L1920 455L1920 0L1890.8 0C1861.7 0 1803.3 0 1745.2 0C1687 0 1629 0 1570.8 0C1512.7 0 1454.3 0 1396.2 0C1338 0 1280 0 1221.8 0C1163.7 0 1105.3 0 1047.2 0C989 0 931 0 872.8 0C814.7 0 756.3 0 698.2 0C640 0 582 0 523.8 0C465.7 0 407.3 0 349.2 0C291 0 233 0 174.8 0C116.7 0 58.3 0 29.2 0L0 0Z" fill="#427d45"></path><path d="M0 465L29.2 481.3C58.3 497.7 116.7 530.3 174.8 550.2C233 570 291 577 349.2 577C407.3 577 465.7 570 523.8 566.5C582 563 640 563 698.2 588.2C756.3 613.3 814.7 663.7 872.8 638.3C931 613 989 512 1047.2 468.8C1105.3 425.7 1163.7 440.3 1221.8 444C1280 447.7 1338 440.3 1396.2 447.5C1454.3 454.7 1512.7 476.3 1570.8 489C1629 501.7 1687 505.3 1745.2 525.2C1803.3 545 1861.7 581 1890.8 599L1920 617L1920 453L1890.8 433.2C1861.7 413.3 1803.3 373.7 1745.2 362.8C1687 352 1629 370 1570.8 346.5C1512.7 323 1454.3 258 1396.2 240C1338 222 1280 251 1221.8 252.8C1163.7 254.7 1105.3 229.3 1047.2 276.2C989 323 931 442 872.8 463.7C814.7 485.3 756.3 409.7 698.2 382.7C640 355.7 582 377.3 523.8 384.5C465.7 391.7 407.3 384.3 349.2 378.8C291 373.3 233 369.7 174.8 346.3C116.7 323 58.3 280 29.2 258.5L0 237Z" fill="#529b56"></path><path d="M0 811L29.2 805.7C58.3 800.3 116.7 789.7 174.8 798.7C233 807.7 291 836.3 349.2 861.5C407.3 886.7 465.7 908.3 523.8 895.7C582 883 640 836 698.2 839.5C756.3 843 814.7 897 872.8 909.7C931 922.3 989 893.7 1047.2 866.7C1105.3 839.7 1163.7 814.3 1221.8 827C1280 839.7 1338 890.3 1396.2 913.8C1454.3 937.3 1512.7 933.7 1570.8 908.3C1629 883 1687 836 1745.2 837.8C1803.3 839.7 1861.7 890.3 1890.8 915.7L1920 941L1920 615L1890.8 597C1861.7 579 1803.3 543 1745.2 523.2C1687 503.3 1629 499.7 1570.8 487C1512.7 474.3 1454.3 452.7 1396.2 445.5C1338 438.3 1280 445.7 1221.8 442C1163.7 438.3 1105.3 423.7 1047.2 466.8C989 510 931 611 872.8 636.3C814.7 661.7 756.3 611.3 698.2 586.2C640 561 582 561 523.8 564.5C465.7 568 407.3 575 349.2 575C291 575 233 568 174.8 548.2C116.7 528.3 58.3 495.7 29.2 479.3L0 463Z" fill="#6cb36f"></path><path d="M0 1081L29.2 1081C58.3 1081 116.7 1081 174.8 1081C233 1081 291 1081 349.2 1081C407.3 1081 465.7 1081 523.8 1081C582 1081 640 1081 698.2 1081C756.3 1081 814.7 1081 872.8 1081C931 1081 989 1081 1047.2 1081C1105.3 1081 1163.7 1081 1221.8 1081C1280 1081 1338 1081 1396.2 1081C1454.3 1081 1512.7 1081 1570.8 1081C1629 1081 1687 1081 1745.2 1081C1803.3 1081 1861.7 1081 1890.8 1081L1920 1081L1920 939L1890.8 913.7C1861.7 888.3 1803.3 837.7 1745.2 835.8C1687 834 1629 881 1570.8 906.3C1512.7 931.7 1454.3 935.3 1396.2 911.8C1338 888.3 1280 837.7 1221.8 825C1163.7 812.3 1105.3 837.7 1047.2 864.7C989 891.7 931 920.3 872.8 907.7C814.7 895 756.3 841 698.2 837.5C640 834 582 881 523.8 893.7C465.7 906.3 407.3 884.7 349.2 859.5C291 834.3 233 805.7 174.8 796.7C116.7 787.7 58.3 798.3 29.2 803.7L0 809Z" fill="#8ec48f"></path></svg>